<?xml version="1.0" encoding="utf-8"?>
<!-- Generator: Adobe Illustrator 19.0.0, SVG Export Plug-In . SVG Version: 6.00 Build 0)  -->
<svg version="1.1" id="Calque_1" xmlns="http://www.w3.org/2000/svg" xmlns:xlink="http://www.w3.org/1999/xlink" x="0px" y="0px"
	 viewBox="0 0 14.8 36.8" style="enable-background:new 0 0 14.8 36.8;" xml:space="preserve">
<style type="text/css">
	.st0{fill:#EEF1F8;}
</style>
<g id="XMLID_158_">
	<path id="XMLID_164_" class="st0" d="M11.9,23.4V5.5c0-3-2-5.5-4.5-5.5S3,2.5,3,5.5v17.9c-1.9,1.4-3,3.6-3,5.9
		c0,4.1,3.3,7.4,7.4,7.4s7.4-3.3,7.4-7.4C14.8,27,13.7,24.8,11.9,23.4z M7.4,35.3c-3.3,0-5.9-2.7-5.9-5.9c0-2,1-3.8,2.6-4.9
		c0.2-0.1,0.3-0.4,0.3-0.6V5.5c0-2.2,1.4-4,3-4s3,1.8,3,4v18.3c0,0.2,0.1,0.5,0.3,0.6c1.7,1.1,2.6,3,2.6,4.9
		C13.4,32.6,10.7,35.3,7.4,35.3z"/>
	<path id="XMLID_161_" class="st0" d="M8.9,26.3V6.4c0-1.1-0.7-1.9-1.5-1.9S5.9,5.3,5.9,6.4v19.9c-1.3,0.6-2.2,1.9-2.2,3.4
		c0,2.1,1.7,3.7,3.7,3.7s3.7-1.7,3.7-3.7C11.1,28.2,10.2,26.9,8.9,26.3z"/>
</g>
</svg>
