<?xml version="1.0" encoding="utf-8"?>
<!-- Generator: Adobe Illustrator 19.0.0, SVG Export Plug-In . SVG Version: 6.00 Build 0)  -->
<svg version="1.1" id="Calque_1" xmlns="http://www.w3.org/2000/svg" xmlns:xlink="http://www.w3.org/1999/xlink" x="0px" y="0px"
	 viewBox="0 0 45.5 25.3" style="enable-background:new 0 0 45.5 25.3;" xml:space="preserve">
<style type="text/css">
	.st0{fill:#EEF1F8;}
</style>
<g id="XMLID_159_">
	<path id="XMLID_167_" class="st0" d="M11.8,7.3c0,0.5,0.4,0.8,0.8,0.8h20.2c0.5,0,0.8-0.4,0.8-0.8c0-0.5-0.4-0.8-0.8-0.8H12.6
		C12.1,6.5,11.8,6.9,11.8,7.3z"/>
	<path id="XMLID_166_" class="st0" d="M45.5,6.1c0-2.9-2.2-6.1-5.3-6.1c-0.5,0-0.8,0.4-0.8,0.8c0,0.5,0.4,0.8,0.8,0.8
		c2,0,3.6,2.4,3.6,4.4c0,2.1-1.7,3.7-3.7,3.7H16c-0.5,0-0.8,0.4-0.8,0.8c0,0.5,0.4,0.8,0.8,0.8H40C43,11.5,45.5,9.1,45.5,6.1z"/>
	<path id="XMLID_165_" class="st0" d="M43.8,19.7c0-3-2.4-6.5-5.4-6.5H9.2c-0.5,0-0.8,0.4-0.8,0.8c0,0.5,0.4,0.8,0.8,0.8h29.1
		c2,0,3.7,2.7,3.7,4.8c0,2.2-1.6,3.9-3.6,3.9c-0.5,0-0.8,0.4-0.8,0.8s0.4,0.8,0.8,0.8C41.4,25.3,43.8,22.8,43.8,19.7z"/>
	<path id="XMLID_163_" class="st0" d="M3.4,7.3c0,0.5,0.4,0.8,0.8,0.8h5c0.5,0,0.8-0.4,0.8-0.8c0-0.5-0.4-0.8-0.8-0.8h-5
		C3.7,6.5,3.4,6.9,3.4,7.3z"/>
	<path id="XMLID_162_" class="st0" d="M0.8,14.9h5c0.5,0,0.8-0.4,0.8-0.8c0-0.5-0.4-0.8-0.8-0.8h-5C0.4,13.2,0,13.6,0,14
		C0,14.5,0.4,14.9,0.8,14.9z"/>
	<path id="XMLID_160_" class="st0" d="M7.6,11.5h5c0.5,0,0.8-0.4,0.8-0.8c0-0.5-0.4-0.8-0.8-0.8h-5c-0.5,0-0.8,0.4-0.8,0.8
		C6.7,11.2,7.1,11.5,7.6,11.5z"/>
</g>
</svg>
